# xmcd
#
# Track frame offsets: 
#        150
#        12377
#        28724
#        45768
#        59738
#        72657
#        92488
#        107483
#        121077
#        136004
#        150141
#        160473
#        177323
#        193151
#        206128
#        218759
#        231509
#        250136
#        265862
#        284511
#
# Disc length: 3986 seconds
#
# Revision: 1
# Processed by: cddbd v1.5.2PL0 Copyright (c) Steve Scherf et al.
# Submitted via: ExactAudioCopy v1.0b3
#
DISCID=1d0f9014
DTITLE=Kathy Mattea - The Definitive Collection
DYEAR=2006
DGENRE=Country
TTITLE0=Street Talk
TTITLE1=Love At The Five And Dime
TTITLE2=Walk The Way The Wind Blows
TTITLE3=You're The Power
TTITLE4=Train Of Memories
TTITLE5=Goin' Gone
TTITLE6=Eighteen Wheels And A Dozen Roses
TTITLE7=Untold Stories
TTITLE8=Life As We Knew It
TTITLE9=Come From The Heart
TTITLE10=Burnin' Old Memories
TTITLE11=Where've You Been
TTITLE12=She Came From Fort Worth
TTITLE13=The Battle Hymn Of Love (Featuring Tim O'Brien)
TTITLE14=Time Passes By
TTITLE15=Lonesome Standard Time
TTITLE16=Standing Knee Deep In A River (Dying Of Thirst)
TTITLE17=Walking Away A Winner
TTITLE18=455 Rocket
TTITLE19=Mary, Did You Know?
EXTD=
EXTT0=
EXTT1=
EXTT2=
EXTT3=
EXTT4=
EXTT5=
EXTT6=
EXTT7=
EXTT8=
EXTT9=
EXTT10=
EXTT11=
EXTT12=
EXTT13=
EXTT14=
EXTT15=
EXTT16=
EXTT17=
EXTT18=
EXTT19=
PLAYORDER=
